<svg width="93" height="50" xmlns="http://www.w3.org/2000/svg">
 <!-- Created with Method Draw - http://github.com/duopixel/Method-Draw/ -->
 <g>
  <title>background</title>
  <rect fill="#c1c419" id="canvas_background" height="52" width="95" y="-1" x="-1"/>
  <g display="none" overflow="visible" y="0" x="0" height="100%" width="100%" id="canvasGrid">
   <rect fill="url(#gridpattern)" stroke-width="0" y="0" x="0" height="100%" width="100%"/>
  </g>
 </g>
 <g>
  <title>Layer 1</title>
  <ellipse stroke="#000" ry="21.999999" rx="41.500001" id="svg_1" cy="23.999996" cx="44.999997" stroke-width="1.5" fill="#5B9BA2"/>
  <text stroke="#000" transform="matrix(6.395784378051758,0,0,1,-1173.5831022262573,0) " xml:space="preserve" text-anchor="start" font-family="Helvetica, Arial, sans-serif" font-size="24" id="svg_3" y="132" x="217.5" fill-opacity="null" stroke-opacity="null" stroke-width="0" fill="#000000"/>
  <text stroke="#000" transform="rotate(2.0178868770599365 60.80272293090811,22.77314949035653) matrix(0.8542475517015987,0,0,0.6935611010123246,-75.48312832668739,5.674313026412737) " xml:space="preserve" text-anchor="start" font-family="Helvetica, Arial, sans-serif" font-size="24" id="svg_4" y="33.016263" x="132.550468" fill-opacity="null" stroke-opacity="null" stroke-width="0" fill="#000000">DGR</text>
  <path id="svg_5" d="m1,290.931192l0.381969,0l0.118031,-0.381967l0.118031,0.381967l0.381969,0l-0.309019,0.236066l0.118037,0.381967l-0.309019,-0.236072l-0.309019,0.236072l0.118037,-0.381967l-0.309019,-0.236066z" stroke-opacity="null" stroke-width="1.5" stroke="#000" fill="#84D3DB"/>
  <path stroke="#000" id="svg_6" d="m38.777335,18.364253l-12.604875,0l-3.895003,-8.562006l-3.895006,8.562006l-12.604873,0l10.19754,5.29155l-3.895205,8.562006l10.197544,-5.291694l10.197542,5.291694l-3.895206,-8.562006l10.197543,-5.29155z" stroke-opacity="null" stroke-width="1.5" fill="#CFCA6D"/>
 </g>
</svg>